<?xml version="1.0" encoding="UTF-8" standalone="no"?>
<svg
   xmlns:dc="http://purl.org/dc/elements/1.1/"
   xmlns:cc="http://creativecommons.org/ns#"
   xmlns:rdf="http://www.w3.org/1999/02/22-rdf-syntax-ns#"
   xmlns:svg="http://www.w3.org/2000/svg"
   xmlns="http://www.w3.org/2000/svg"
   version="1.1"
   id="svg4202"
   viewBox="0 0 382.16645 382.16645"
   height="107.85587mm"
   width="107.85587mm">
  <defs
     id="defs4204" />
  <metadata
     id="metadata4207">
    <rdf:RDF>
      <cc:Work
         rdf:about="">
        <dc:format>image/svg+xml</dc:format>
        <dc:type
           rdf:resource="http://purl.org/dc/dcmitype/StillImage" />
        <dc:title></dc:title>
      </cc:Work>
    </rdf:RDF>
  </metadata>
  <g
     transform="translate(-189.74343,-142.35475)"
     id="layer1">
    <g
       transform="translate(-202.03051,226.27417)"
       id="g4788">
      <rect
         style="fill:#f7d117;fill-opacity:1;stroke:none;stroke-width:2;stroke-linejoin:bevel;stroke-miterlimit:4;stroke-dasharray:none;stroke-opacity:1"
         id="rect4765"
         width="279"
         height="279"
         x="348.41852"
         y="-475.866"
         transform="matrix(0.70710678,0.70710678,-0.70710678,0.70710678,0,0)"
         rx="15"
         ry="15" />
      <rect
         ry="8"
         rx="8"
         transform="matrix(0.70710678,0.70710678,-0.70710678,0.70710678,0,0)"
         y="-467.866"
         x="356.41852"
         height="263"
         width="263"
         id="rect4771"
         style="fill:#f7d117;fill-opacity:1;stroke:#000000;stroke-width:8;stroke-linejoin:bevel;stroke-miterlimit:4;stroke-dasharray:none;stroke-opacity:1" />
      <path
         style="fill:#000000"
         d="m 589.75604,184.41382 c 0,-3.57817 -1.0793,-3.92485 -5.32497,-1.71042 l -2.82498,1.47344 0.66571,-3.03093 0.6657,-3.03092 -3.59073,1.5003 c -4.50144,1.88082 -4.52155,0.90571 -0.0907,-4.39764 1.925,-2.30407 3.5,-4.57931 3.5,-5.05607 0,-0.47676 1.71681,-1.32913 3.81513,-1.89415 2.09832,-0.56502 4.82273,-2.09985 6.05425,-3.41074 1.96849,-2.09537 2.04138,-2.45931 0.60308,-3.01123 -3.28555,-1.26079 -11.06015,-0.59673 -14.48727,1.23741 -9.00344,4.81849 -37.69989,7.10342 -46.71495,3.71963 -4.11396,-1.54417 -26.72814,-3.05511 -40.29679,-2.69238 -4.68961,0.12536 -9.86461,-0.27913 -11.5,-0.89888 -6.95334,-2.63502 -10.16795,-8.99359 -4.5468,-8.99359 1.94643,0 3.07985,-0.58614 3.384,-1.75 0.43555,-1.66667 0.46285,-1.66667 0.57332,0 0.0638,0.9625 0.8539,1.75 1.75576,1.75 0.90187,0 2.23756,-0.7875 2.9682,-1.75 1.26209,-1.66259 1.33003,-1.66084 1.36024,0.0352 0.0259,1.45296 0.39177,1.59254 1.96606,0.75 1.06385,-0.56937 2.86385,-1.0352 4.00001,-1.0352 1.4388,0 2.06574,-0.64415 2.06574,-2.12244 0,-1.66219 0.29102,-1.88092 1.34201,-1.00868 1.66273,1.37994 2.72529,0.47006 1.91548,-1.64025 -0.45644,-1.18947 -0.17167,-1.40967 1.16144,-0.89811 1.26152,0.48409 1.9159,0.10511 2.29024,-1.32639 0.28825,-1.10227 1.16072,-2.00413 1.93884,-2.00413 0.77811,0 1.67278,-0.67242 1.98815,-1.49426 0.31537,-0.82184 0.96695,-1.25103 1.44795,-0.95375 0.481,0.29727 1.81082,0.0394 2.95515,-0.573 2.45282,-1.31272 2.42174,-6.46206 -0.0393,-6.50542 -0.825,-0.0145 -2.0625,-0.3786 -2.75,-0.80902 -0.6875,-0.43042 -1.66157,-0.52822 -2.16459,-0.21734 -0.50302,0.31089 -1.10484,-5e-5 -1.33738,-0.69098 -0.33121,-0.98411 -0.78293,-0.95894 -2.0854,0.11621 -1.43093,1.18119 -1.66262,1.14635 -1.66262,-0.25 0,-1.91998 -1.13171,-2.09073 -2.8,-0.42244 -0.93333,0.93333 -1.2,0.80725 -1.2,-0.56739 0,-1.34702 -0.50547,-1.60696 -2.12523,-1.09286 -1.31653,0.41785 -1.88951,0.2931 -1.50574,-0.32783 0.9257,-1.49782 -2.41098,-2.422 -3.99578,-1.10673 -1.09095,0.90543 -1.37322,0.70342 -1.37322,-0.98275 0,-1.89975 -0.54125,-2.31767 -2.6382,-2.03703 -0.35101,0.047 -0.99171,-0.48659 -1.42379,-1.1857 -0.62565,-1.01233 -1.14459,-0.97882 -2.54903,0.16459 -1.56838,1.27689 -1.69226,1.24567 -1.11989,-0.28227 0.785,-2.09557 -1.01858,-3.43254 -2.55623,-1.8949 -1.81291,1.81291 -2.46845,1.28514 -1.92632,-1.55086 0.41596,-2.17594 0.20744,-2.54219 -1.13867,-2 -0.90633,0.36505 -2.29842,0.92749 -3.09352,1.24986 -1.21283,0.49174 -1.26927,0.0489 -0.35046,-2.75 1.95614,-5.9587 3.07956,-7.79089 5.20622,-8.49081 3.60473,-1.18639 7.52638,-0.40617 13.75034,2.73568 4.43982,2.24121 6.78185,2.87095 8.9259,2.40004 1.5987,-0.35114 4.4812,-0.1188 6.40557,0.5163 2.91714,0.96274 3.7609,0.89269 5.07489,-0.42131 1.8324,-1.83239 7.73966,-2.06236 12.28396,-0.4782 2.08606,0.7272 4.0776,0.77728 5.89922,0.14833 1.77871,-0.61413 4.99579,-0.5751 9.10846,0.11049 l 6.35846,1.05998 9.14154,-4.67309 c 25.40867,-12.988752 68.29264,-39.196839 69.3557,-42.386019 0.91654,-2.74961 -31.58616,-2.88534 -61.21416,-0.25562 -11.03679,0.9796 -46.28218,5.24176 -53.79709,6.50559 -2.89782,0.48734 -2.72664,0.26974 1.79709,-2.28442 3.37856,-1.90758 5.10592,-3.57019 5.32661,-5.12695 0.37502,-2.64533 3.62946,-4.19612 8.80588,-4.19612 3.02239,0 3.41712,-0.26834 2.88072,-1.95837 -0.5452,-1.71778 9.1e-4,-2.04094 4.44526,-2.63051 4.30389,-0.57093 4.81606,-0.85551 3.4014,-1.88992 -2.94188,-2.15116 -0.5299,-3.5212 6.19915,-3.5212 6.38061,0 7.4808,-0.56018 5.32811,-2.71287 -1.5712,-1.5712 -0.0928,-3.47403 2.19703,-2.82781 1.05371,0.29738 2.92481,0.83059 4.158,1.18493 2.00222,0.5753 2.09398,0.4657 0.8575,-1.02417 -2.08569,-2.5131 -0.59083,-3.11565 4.92591,-1.98556 5.41149,1.10853 5.78322,0.91666 3.37647,-1.74277 -1.85879,-2.05394 -0.98884,-4.18435 1.43212,-3.50708 6.6294,1.85457 8.16584,1.79715 8.16584,-0.30521 0,-2.50775 1.97255,-2.66214 6.18447,-0.48407 l 3.08516,1.5954 -0.51121,-2.67421 c -0.64752,-3.387252 1.38838,-4.305642 4.71412,-2.12653 3.2753,2.14606 4.45003,2.02986 3.82039,-0.3779 -0.89007,-3.403632 2.45152,-3.631162 5.82747,-0.3968 l 3.00101,2.87515 1.8403,-2.43974 c 1.37507,-1.822972 2.9111,-2.494782 6.07601,-2.657452 2.32965,-0.11974 4.59197,-0.79413 5.02739,-1.49865 0.62609,-1.01304 1.33935,-1.03141 3.41033,-0.0878 3.76064,1.71346 8.52456,1.54197 8.52456,-0.30686 0,-1.89289 1.08547,-1.90259 3.55887,-0.0318 2.78957,2.10992 3.43653,1.88326 3.47709,-1.2182 l 0.036,-2.75 2.21403,2.59513 c 3.29061,3.85701 5.71404,4.43953 5.71404,1.37349 0,-3.23923 1.78414,-3.17687 2.60433,0.091 0.4375,1.74317 1.12207,2.37559 2.1461,1.98263 0.82703,-0.31736 2.05829,0.18146 2.73615,1.10848 1.14215,1.561992 1.45559,1.526622 4.27731,-0.48263 3.95719,-2.81776 5.23608,-2.7367 5.23608,0.3319 0,2.817352 1.34893,3.087142 5,1 3.11485,-1.78061 5.37789,-1.90091 4.70292,-0.25 -2.16674,5.299682 -2.31361,5.102202 2.11451,2.843142 2.25659,-1.15123 4.40507,-2.09314 4.7744,-2.09314 0.36933,0 0.43597,1.75608 0.14809,3.90241 l -0.52343,3.90241 3.38644,-1.99805 c 3.01846,-1.78094 3.45307,-1.82442 3.9996,-0.40017 0.33724,0.87883 0.31874,2.77096 -0.0411,4.20474 l -0.65428,2.60687 2.68129,-2.1091 c 1.47469,-1.16001 3.29559,-2.10911 4.04642,-2.10911 1.76851,0 1.69533,3.79841 -0.13486,7 -2.04313,3.57409 -1.82617,4.34186 0.72251,2.5567 1.22237,-0.85618 2.53854,-1.5567 2.9248,-1.5567 0.38627,0 0.68075,3.7125 0.6544,8.25 -0.0264,4.5375 0.28483,14.18449 0.6915,21.43777 0.6721,11.987497 0.53853,13.853267 -1.4676,20.499989 -1.21385,4.02173 -3.04523,8.68145 -4.06974,10.35493 -1.68988,2.76033 -1.73193,3.40992 -0.4532,7 0.77525,2.17652 1.43122,5.75731 1.45772,7.95731 0.0327,2.71418 1.00978,5.44654 3.03961,8.5 1.81059,2.72366 2.99313,5.80887 2.99572,7.81574 0.002,1.82366 0.49074,4.2247 1.0853,5.33565 1.15949,2.16652 0.30538,4.09186 -0.92911,2.09441 -0.40663,-0.65795 -1.84467,-1.31992 -3.19562,-1.47104 -2.15408,-0.24095 -2.41911,0.0748 -2.15414,2.56649 0.3778,3.55252 -0.91699,2.86337 -4.8682,-2.59113 l -2.93395,-4.0502 0,5.37731 0,5.37732 -2.60034,-2.60034 c -1.43018,-1.43019 -2.92358,-4.11996 -3.31866,-5.97728 l -0.71833,-3.37693 -2.30535,4.45324 -2.30534,4.45325 -1.97226,-3.84433 c -1.85953,-3.62459 -1.8811,-4.07641 -0.37734,-7.9046 2.3834,-6.06754 0.73105,-6.55258 -6.58474,-1.93292 -8.60191,5.43179 -15.51702,8.85251 -26.24941,12.98487 -10.80587,4.16065 -11.64036,4.76079 -11.37953,8.18388 0.30677,4.02602 -2.9387,8.54897 -8.79412,12.25566 -4.85988,3.07648 -5.25049,3.60143 -4.76875,6.40894 0.51561,3.00495 0.46132,3.05058 -3.13045,2.63126 -3.08519,-0.36017 -4.18849,0.0902 -7.07527,2.88818 l -3.42011,3.3149 z"
         id="path4200" />
    </g>
  </g>
</svg>
